<svg xmlns="http://www.w3.org/2000/svg" viewBox="0 0 410 404" fill="none">
  <defs>
    <linearGradient id="a" x1="-53.25" y1="58.02" x2="354.51" y2="422.62" gradientUnits="userSpaceOnUse">
      <stop stop-color="#41D1FF"/>
      <stop offset="1" stop-color="#BD34FE"/>
    </linearGradient>
    <linearGradient id="b" x1="-17.55" y1="-1.33" x2="210.29" y2="286.76" gradientUnits="userSpaceOnUse">
      <stop stop-color="#FFEA83"/>
      <stop offset=".08" stop-color="#FFDD35"/>
      <stop offset="1" stop-color="#FFA800"/>
    </linearGradient>
  </defs>
  <path d="M399.84 56.11L215.3 388.36c-5.78 10.58-20.8 10.62-26.64.07L9.74 56.27c-6.37-11.18 3.18-24.63 15.53-22.31l179.86 34.21a14.5 14.5 0 0 0 5.2-.02l173.43-33.82c12.31-2.4 21.95 11 15.59 22.16Z" fill="url(#a)"/>
  <path d="M292.17 1.05L156.7 27.5a7.27 7.27 0 0 0-5.86 6.48l-8.27 119.1a7.27 7.27 0 0 0 9.17 7.4l37.9-9.65c5.26-1.34 10.03 3.26 8.97 8.56l-11.24 56.87c-1.14 5.77 4.67 10.45 10.06 8.17l23.4-10.06a7.27 7.27 0 0 1 9.93 8.3l-17.83 86.78c-1.8 8.77 9.96 13.4 14.83 6.1l2.08-3.06 110.13-220.7c2.93-5.87-2.28-12.57-8.76-11.33l-39.01 7.54c-5.5 1.06-10.34-3.88-9.07-9.36l19.1-82.75c1.3-5.63-3.8-10.68-9.4-9.61Z" fill="url(#b)"/>
</svg>
